<?xml version="1.0" encoding="UTF-8" standalone="no"?>
<svg
   xmlns:dc="http://purl.org/dc/elements/1.1/"
   xmlns:cc="http://creativecommons.org/ns#"
   xmlns:rdf="http://www.w3.org/1999/02/22-rdf-syntax-ns#"
   xmlns:svg="http://www.w3.org/2000/svg"
   xmlns="http://www.w3.org/2000/svg"
   xmlns:sodipodi="http://sodipodi.sourceforge.net/DTD/sodipodi-0.dtd"
   xmlns:inkscape="http://www.inkscape.org/namespaces/inkscape"
   version="1.1"
   width="24"
   height="24"
   viewBox="0 0 24 24"
   id="svg4"
   sodipodi:docname="settings.svg"
   inkscape:version="0.92.5 (2060ec1f9f, 2020-04-08)">
  <metadata
     id="metadata10">
    <rdf:RDF>
      <cc:Work
         rdf:about="">
        <dc:format>image/svg+xml</dc:format>
        <dc:type
           rdf:resource="http://purl.org/dc/dcmitype/StillImage" />
      </cc:Work>
    </rdf:RDF>
  </metadata>
  <defs
     id="defs8" />
  <sodipodi:namedview
     pagecolor="#ffffff"
     bordercolor="#666666"
     borderopacity="1"
     objecttolerance="10"
     gridtolerance="10"
     guidetolerance="10"
     inkscape:pageopacity="0"
     inkscape:pageshadow="2"
     inkscape:window-width="1920"
     inkscape:window-height="1012"
     id="namedview6"
     showgrid="false"
     inkscape:zoom="9.8333333"
     inkscape:cx="2.9863267"
     inkscape:cy="-3.1837722"
     inkscape:window-x="0"
     inkscape:window-y="34"
     inkscape:window-maximized="1"
     inkscape:current-layer="svg4" />
  <path
     d="m 12.000432,16.185169 a 4.1851695,4.1851695 0 0 1 -4.1851691,-4.185168 4.1851695,4.1851695 0 0 1 4.1851691,-4.1851705 4.1851695,4.1851695 0 0 1 4.18517,4.1851705 4.1851695,4.1851695 0 0 1 -4.18517,4.185168 m 8.884518,-3.025278 c 0.04783,-0.382645 0.0837,-0.76529 0.0837,-1.15989 0,-0.394603 -0.03587,-0.789204 -0.0837,-1.195763 L 23.408008,8.8551441 C 23.635203,8.6757797 23.694992,8.3529238 23.551501,8.0898559 L 21.159975,3.952517 C 21.016483,3.6894491 20.693627,3.5818304 20.43056,3.6894491 L 17.45311,4.8852118 C 16.831313,4.4188644 16.185602,4.0123051 15.432272,3.7133644 L 14.989839,0.54459325 C 14.942008,0.25761014 14.690898,0.04237288 14.391958,0.04237288 H 9.6089069 c -0.2989406,0 -0.5500508,0.21523726 -0.5978813,0.50222037 L 8.5685934,3.7133644 c -0.7533305,0.2989407 -1.3990423,0.7055 -2.020839,1.1718474 L 3.5703053,3.6894491 c -0.2630678,-0.1076188 -0.5859238,0 -0.7294152,0.2630679 L 0.44936453,8.0898559 C 0.2939154,8.3529238 0.36566082,8.6757797 0.59285613,8.8551441 L 3.1159154,10.804238 c -0.04783,0.406559 -0.083704,0.80116 -0.083704,1.195763 0,0.3946 0.035873,0.777245 0.083704,1.15989 l -2.52305927,1.984964 c -0.22719499,0.179366 -0.29894073,0.502221 -0.1434916,0.765289 l 2.39152557,4.13734 c 0.1434914,0.263067 0.4663474,0.358727 0.7294152,0.263067 l 2.9774491,-1.20772 c 0.6217967,0.478305 1.2675085,0.884864 2.020839,1.183805 l 0.4424322,3.168771 c 0.04783,0.286984 0.2989407,0.50222 0.5978813,0.50222 h 4.7830511 c 0.29894,0 0.55005,-0.215236 0.597881,-0.50222 l 0.442433,-3.168771 c 0.75333,-0.310898 1.399041,-0.7055 2.020838,-1.183805 l 2.97745,1.20772 c 0.263067,0.09566 0.585923,0 0.729415,-0.263067 l 2.391526,-4.13734 c 0.143491,-0.263068 0.0837,-0.585923 -0.143493,-0.765289 z"
     id="path2"
     inkscape:connector-curvature="0"
     style="stroke-width:1.19576275" />
</svg>
